<svg width="64" height="64" viewBox="0 0 64 64" fill="none" xmlns="http://www.w3.org/2000/svg">
    <!-- Shield Outline -->
    <path d="M32 4 L60 18 L60 46 L32 60 L4 46 L4 18 Z" stroke="#22d3ee" stroke-width="4" />

    <!-- Brain shape, filled -->
    <g fill="#22d3ee" fill-opacity="0.3">
      <path d="M 31,23 C 20,23 16,32 16,38 C 16,44 20,51 31,51 V 23 Z" />
      <path d="M 33,23 C 44,23 48,32 48,38 C 48,44 44,51 33,51 V 23 Z" />
    </g>

    <!-- Circuit Nodes (white dots) -->
    <g fill="#FFFFFF">
        <circle cx="24" cy="30" r="2.5" />
        <circle cx="21" cy="42" r="2.5" />
        <circle cx="31" cy="46" r="2.5" />
        <circle cx="40" cy="30" r="2.5" />
        <circle cx="43" cy="42" r="2.5" />
        <circle cx="32" cy="26" r="3" />
        <circle cx="32" cy="38" r="3" />
    </g>

    <!-- Circuit Traces (white lines) -->
    <g stroke="#FFFFFF" stroke-width="1.5" stroke-linecap="round">
        <line x1="24" y1="30" x2="21" y2="42" />
        <line x1="21" y1="42" x2="31" y2="46" />
        <line x1="40" y1="30" x2="43" y2="42" />
        <line x1="24" y1="30" x2="32" y2="26" />
        <line x1="32" y1="26" x2="40" y2="30" />
        <line x1="31" y1="46" x2="32" y2="38" />
        <line x1="43" y1="42" x2="32" y2="38" />
        <line x1="24" y1="30" x2="32" y2="38" />
        <line x1="40" y1="30" x2="32" y2="38" />
    </g>
</svg>
